<svg width="52" height="41" viewBox="0 0 52 41" fill="none" xmlns="http://www.w3.org/2000/svg">
<path d="M32.7601 13.5234C32.5412 12.4062 32.1582 11.3276 31.6237 10.3224C31.1911 9.51508 30.5997 8.80357 29.8851 8.23069C29.0611 10.1957 28.0816 12.3553 26.9467 14.7097C25.8118 17.064 24.5637 19.4425 23.2024 21.8451C23.4197 22.7205 23.6461 23.5913 23.8815 24.4576C24.117 25.3223 24.3343 26.2007 24.5244 27.0926C24.7146 27.9845 24.8866 28.9036 25.0315 29.8091C25.1769 30.7695 25.2736 31.7366 25.3213 32.7068C27.1066 31.9523 28.836 31.0717 30.4963 30.0717C32.2771 29.0009 34.0014 27.8388 35.6623 26.59C36.1694 25.111 36.7504 23.5898 37.4054 22.0262C38.0574 20.4642 38.7637 18.9203 39.4564 17.399C40.1491 15.8778 40.9007 14.4018 41.6387 12.9756C42.3767 11.5494 43.092 10.2183 43.7802 8.99132C42.7687 9.1402 41.7865 9.4457 40.869 9.89684C39.9009 10.3576 38.9893 10.9289 38.1525 11.5992C37.2844 12.2881 36.4811 13.0549 35.7528 13.8902C35.0251 14.7289 34.3521 15.6136 33.7381 16.5388C33.1531 17.4199 32.634 18.343 32.1851 19.3006C31.7841 20.153 31.4598 21.0393 31.2162 21.9493C30.9808 22.7733 30.8963 22.7733 30.9627 21.9493C31.1319 20.0698 31.6187 18.2327 32.4024 16.5162C33.9772 13.0113 36.6144 10.0905 39.9408 8.1673C41.6569 7.16949 43.5338 6.4785 45.4871 6.12536C46.0576 5.21984 46.5692 4.423 47.0129 3.79367C47.3376 3.3096 47.7042 2.85508 48.1086 2.43539C48.2041 2.29814 48.3357 2.19001 48.4889 2.12299C48.6676 2.02192 48.8646 1.95729 49.0685 1.93284C49.1504 1.91872 49.2345 1.92494 49.3135 1.95099C49.3924 1.97705 49.4638 2.02212 49.5212 2.08223C49.6299 2.19995 49.6253 2.42633 49.5212 2.7659C49.2243 3.0993 48.9619 3.46184 48.7379 3.848C48.4029 4.38678 48.0135 5.06592 47.5789 5.88994C48.0364 5.92287 48.4842 6.03789 48.9009 6.22951C49.3119 6.42053 49.6753 6.70043 49.9649 7.049C50.2889 7.46007 50.5289 7.9308 50.6712 8.43444C50.8475 9.06586 50.9149 9.7227 50.8704 10.3768C50.788 11.7115 50.4369 13.0159 49.8382 14.2116C49.1392 15.6576 48.2861 17.0238 47.2937 18.2865C46.1706 19.7324 44.9434 21.0943 43.6218 22.3613C42.2133 23.7187 40.7337 25.0003 39.1893 26.2007C38.7365 27.7461 38.3547 29.2372 38.0438 30.6739C37.7505 31.9784 37.5522 33.3024 37.4507 34.6356C37.357 35.6934 37.4026 36.7589 37.5865 37.8049C37.7048 38.5986 38.0617 39.3376 38.6098 39.9238C38.6386 40.0094 38.6352 40.1027 38.6002 40.1861C38.5652 40.2694 38.501 40.3372 38.4196 40.3765C38.181 40.4938 37.9104 40.5288 37.6499 40.4761C37.2345 40.4106 36.8315 40.2823 36.4546 40.0958C35.9084 39.8308 35.4097 39.4774 34.9786 39.0499C34.5419 38.6309 34.2287 38.1 34.0731 37.5151C33.8676 36.7972 33.7729 36.0521 33.7924 35.3056C33.8118 34.379 33.9057 33.4554 34.0731 32.5438C34.2497 31.5387 34.4851 30.4792 34.7885 29.3745C33.0006 30.5545 31.1355 31.6133 29.206 32.5438C27.5905 33.3402 25.8993 33.9727 24.1577 34.4318C24.0536 33.4222 23.9177 32.4759 23.7412 31.584C23.5646 30.692 23.3654 29.8454 23.148 29.0349C22.9307 28.2245 22.6953 27.4548 22.4146 26.7168C22.1339 25.9788 21.8803 25.2453 21.6087 24.5209C20.4013 26.4738 19.1457 28.3196 17.8417 30.0582C16.6407 31.6746 15.3081 33.189 13.8575 34.5858C12.6483 35.7682 11.2761 36.7714 9.78263 37.5649C8.54564 38.2432 7.13633 38.5424 5.73044 38.4251C4.90474 38.3868 4.09838 38.1623 3.37157 37.7686C2.76806 37.4364 2.22965 36.9977 1.78239 36.4738C1.3977 36.0141 1.09173 35.4939 0.87687 34.9344C0.694659 34.4914 0.575773 34.025 0.52372 33.5489C0.467326 33.2679 0.512235 32.976 0.650491 32.7249C0.763681 32.5755 0.935736 32.6253 1.15306 32.8788C2.06438 33.6716 3.16841 34.2103 4.35406 34.4409C5.45464 34.6254 6.58344 34.5431 7.64561 34.2009C8.84089 33.8071 9.9613 33.2147 10.9598 32.4487C12.1353 31.5658 13.2293 30.5794 14.2287 29.5013C15.3581 28.2851 16.4163 27.0047 17.398 25.6664C18.4303 24.2538 19.4264 22.7823 20.3862 21.252C19.9969 20.1971 19.6346 19.0878 19.286 17.9378C18.9163 16.6643 18.6141 15.3721 18.3805 14.0668C18.1835 13.0789 18.0984 12.0719 18.127 11.065C18.1554 10.1342 18.3438 9.21529 18.6839 8.34841C19.0239 7.49625 19.539 6.72501 20.1961 6.08462C20.9447 5.3741 21.8306 4.82406 22.7994 4.46827C23.8331 4.045 24.949 3.86082 26.0638 3.92949C27.1074 3.99929 28.1207 4.30919 29.0249 4.83501L30.4148 1.76079C30.5554 1.41283 30.7756 1.10269 31.0577 0.855272C31.2591 0.66616 31.5134 0.54295 31.7867 0.502107C31.8955 0.491976 32.0045 0.518574 32.0964 0.577659C32.1883 0.636744 32.2578 0.724927 32.2938 0.828107C32.3987 1.21265 32.3765 1.62083 32.2304 1.9917C32.0945 2.44446 31.8999 3.05115 31.6508 3.7665C31.4018 4.48186 31.094 5.2923 30.7453 6.20234C31.5399 7.12792 32.1362 8.20657 32.4975 9.37165C32.9217 10.7493 33.0755 12.196 32.9503 13.6321C32.9503 13.9671 32.9276 14.0849 32.8778 14.0351C32.7985 13.8763 32.7582 13.7009 32.7601 13.5234ZM27.8658 7.27538C26.8099 7.03987 25.7082 7.11857 24.6965 7.50176C24.2176 7.68375 23.7869 7.97343 23.4378 8.34841C23.0172 8.78322 22.6604 9.27561 22.3784 9.81081C22.0701 10.3892 21.8445 11.0079 21.7083 11.649C21.5667 12.308 21.5376 12.9861 21.6223 13.6547C21.6856 14.4289 21.7762 15.176 21.8849 15.9185C21.9935 16.661 22.1248 17.3538 22.2788 18.0601C23.3865 16.1434 24.4067 14.2645 25.3394 12.4232C26.2721 10.582 27.1142 8.86607 27.8658 7.27538ZM40.3483 22.6058C41.441 21.5644 42.4371 20.5186 43.3365 19.4682C44.1699 18.499 44.9267 17.4666 45.6003 16.3803C46.1735 15.4682 46.6428 14.4948 46.9994 13.4782C47.299 12.656 47.4149 11.7782 47.3389 10.9065C47.3014 10.4179 47.1325 9.94858 46.8499 9.54821C46.6328 9.27084 46.3251 9.07857 45.9807 9.00492C45.5279 9.94666 45.0525 10.9563 44.568 12.0429C44.0836 13.1295 43.5901 14.2478 43.1056 15.4069C42.6212 16.566 42.1367 17.7522 41.6659 18.9656C41.195 20.179 40.7694 21.3788 40.3483 22.6058Z" fill="#014225" stroke="#024225" stroke-miterlimit="10"/>
<path d="M50.6608 9.76083C50.5184 9.25719 50.2784 8.78646 49.9545 8.37539C49.665 8.0172 49.2981 7.72928 48.8814 7.53327C48.4657 7.33817 48.0175 7.22152 47.5594 7.18917C46.8619 7.1609 46.1643 7.23876 45.4903 7.42008C43.5372 7.76692 41.66 8.45342 39.944 9.44843C36.6165 11.3683 33.9788 14.2881 32.4055 17.7928C31.6218 19.5093 31.135 21.3464 30.9658 23.2259C30.8964 24.0499 30.9809 24.0499 31.2193 23.2259C31.4629 22.3159 31.7872 21.4296 32.1882 20.5772C32.6371 19.6196 33.1562 18.6965 33.7412 17.8154C34.3541 16.8908 35.0272 16.0076 35.756 15.1713C36.483 14.3335 37.2863 13.565 38.1556 12.8758C39.0219 12.2481 39.9295 11.6794 40.8721 11.1734C50.0224 5.67695 49.3025 17.2359 40.356 23.905C37.8522 26.3816 32.2607 30.3115 30.4994 31.371C28.8409 32.3753 27.113 33.2604 25.3289 34.0196C25.2815 33.0479 25.1848 32.0793 25.0392 31.1174C24.8943 30.1938 24.7252 29.2883 24.5321 28.4009C24.3419 27.4954 24.1246 26.6306 23.8892 25.7658C23.6537 24.9011 23.4364 24.0272 23.21 23.1534C21.8065 19.0107 21.0096 13.6047 22.5807 10.8022C23.4138 9.31712 25.9945 7.10314 29.8927 9.53898C30.6074 10.1119 31.1988 10.8234 31.6313 11.6307C32.1659 12.6359 32.5488 13.7145 32.7677 14.8317C32.7735 14.9992 32.8168 15.1632 32.8945 15.3117C32.9443 15.3796 32.967 15.2437 32.967 14.9087C33.0921 13.4726 32.9384 12.0259 32.5142 10.6482C32.1529 9.48316 31.5566 8.40452 30.762 7.47894C30.2598 6.93682 29.6818 6.47018 29.0461 6.0935C28.142 5.56768 27.1286 5.25779 26.085 5.18798C24.9698 5.11868 23.8534 5.30447 22.8206 5.73127C21.834 6.08227 20.9318 6.63596 20.172 7.35669C19.5159 7.99784 19.0009 8.76888 18.6598 9.62048C18.3197 10.4874 18.1314 11.4063 18.1029 12.337C18.0746 13.3425 18.1596 14.3479 18.3565 15.3343C18.59 16.6397 18.8923 17.9318 19.262 19.2054C19.6106 20.3599 19.9728 21.4692 20.3622 22.5241C21.1409 24.6747 20.9734 24.2129 21.6118 25.8156C21.8834 26.5355 22.1506 27.269 22.4177 28.007C22.6848 28.745 22.9338 29.5192 23.1512 30.3296C23.3685 31.1401 23.5677 31.9822 23.7443 32.8741C23.9209 33.7661 24.0567 34.7169 24.1608 35.722C25.8957 35.26 27.5806 34.6276 29.191 33.834C31.1204 32.9033 32.9855 31.8445 34.7735 30.6647C36.3334 29.7373 37.8104 28.6769 39.1879 27.4954C40.7286 26.2876 42.2051 25 43.6113 23.6379C44.9317 22.3698 46.1589 21.0079 47.2832 19.5631C48.2756 18.3004 49.1288 16.9342 49.8277 15.4882C50.4224 14.3113 50.7764 13.0276 50.869 11.7122C50.9116 11.0546 50.8411 10.3946 50.6608 9.76083Z" fill="#FCB017" stroke="#FBB019" stroke-miterlimit="10"/>
</svg>
