<svg width="40" height="40" viewBox="0 0 40 40" fill="none" xmlns="http://www.w3.org/2000/svg">
<path d="M36.9723 5.98143C31.1517 5.98143 23.4933 4.01733 20.7635 0.378422C20.4004 -0.0637769 19.7476 -0.127558 19.3054 0.2356C19.2532 0.278324 19.2053 0.326237 19.1626 0.378422C16.4325 4.01702 8.77414 5.98143 2.95384 5.98143C2.40117 5.98143 1.95317 6.42943 1.95317 6.9821V19.989C1.95317 30.9911 11.5073 37.6238 19.6884 39.9608C19.8679 40.013 20.0583 40.013 20.2377 39.9608C28.4189 37.6238 37.973 30.9911 37.973 19.989V6.9821C37.973 6.42943 37.525 5.98143 36.9723 5.98143ZM35.9716 19.989C35.9716 29.7561 27.4124 35.7436 19.9631 37.958C12.5138 35.7436 3.9542 29.7561 3.9542 19.989V7.96507C9.73757 7.76945 16.5765 5.90514 19.9631 2.49908C23.3499 5.90514 30.1886 7.76945 35.9719 7.96477V19.989H35.9716Z" fill="#FFB000"/>
<path d="M15.9623 15.9869V17.988H14.9616C14.4089 17.988 13.9609 18.436 13.9609 18.9886V26.9928C13.9609 27.5454 14.4089 27.9934 14.9616 27.9934H24.9671C25.5197 27.9934 25.9677 27.5454 25.9677 26.9928V18.9886C25.9677 18.436 25.5197 17.988 24.9671 17.988H23.9664V15.9869C23.9664 13.7765 22.1747 11.9849 19.9643 11.9849C17.754 11.9849 15.9623 13.7765 15.9623 15.9869ZM23.9664 25.9924H15.9623V19.989H23.9664V25.9924ZM21.9654 15.9869V17.988H17.9633V15.9869C17.9633 14.8819 18.859 13.9859 19.9643 13.9859C21.0694 13.9859 21.9654 14.8819 21.9654 15.9869Z" fill="#FFB000"/>
</svg>
