<svg width="40" height="40" viewBox="0 0 40 40" fill="none" xmlns="http://www.w3.org/2000/svg">
<g clip-path="url(#clip0_1_496)">
<path d="M19.9361 14.9033C16.9799 14.9033 14.5742 17.3083 14.5742 20.2644C14.5742 23.2205 16.9799 25.6254 19.9361 25.6254C22.8922 25.6254 25.2971 23.2205 25.2971 20.2644C25.2971 17.3083 22.8922 14.9033 19.9361 14.9033ZM19.9361 23.2427C18.2936 23.2427 16.9569 21.9068 16.9569 20.2644C16.9569 18.6219 18.2936 17.286 19.9361 17.286C21.5777 17.286 22.9144 18.6219 22.9144 20.2644C22.9144 21.9068 21.5777 23.2427 19.9361 23.2427Z" fill="#FFB000"/>
<path d="M31.0051 14.12C29.0012 14.12 27.3707 15.7506 27.3707 17.7553V20.1539C27.3707 24.2187 24.0643 27.5251 20.0002 27.5251C15.9354 27.5251 12.6282 24.2187 12.6282 20.1539V17.7553C12.6282 15.7507 10.9976 14.12 8.99298 14.12C6.98914 14.12 5.35938 15.7506 5.35938 17.7553V20.1094C5.35938 24.6222 7.45773 28.8944 11.004 31.6607V38.8088C11.004 39.4664 11.5369 40.0001 12.1953 40.0001H27.6661C28.3238 40.0001 28.8575 39.4664 28.8575 38.8088V31.7298C32.4895 28.9325 34.6395 24.5809 34.6395 19.9641V17.7553C34.6395 15.7507 33.0097 14.12 31.0051 14.12ZM26.4748 31.1278V37.6174H13.3867V31.0634C13.3867 30.679 13.2 30.3176 12.8871 30.0937C9.6649 27.7944 7.74207 24.0623 7.74207 20.1094V17.7553C7.74207 17.0643 8.30279 16.5027 8.99298 16.5027C9.68396 16.5027 10.2455 17.0642 10.2455 17.7553V20.1539C10.2455 25.5324 14.6209 29.9078 20.0002 29.9078C25.378 29.9078 29.7534 25.5324 29.7534 20.1539V17.7553C29.7534 17.0643 30.3149 16.5027 31.0059 16.5027C31.6961 16.5027 32.2568 17.0642 32.2568 17.7553V19.9641C32.2568 24.017 30.2839 27.8261 26.9799 30.154C26.663 30.3772 26.4748 30.7402 26.4748 31.1278Z" fill="#FFB000"/>
<path d="M15.3041 8.94561L15.1206 12.4783C15.0763 13.348 15.9488 13.9663 16.7504 13.6467L19.998 12.356L23.2456 13.6467C24.0485 13.9651 24.9197 13.3487 24.8753 12.4783L24.6919 8.94561L26.884 6.28255C27.4297 5.62191 27.1167 4.61181 26.2867 4.37878L22.8993 3.4265L20.9923 0.534706C20.523 -0.178513 19.4725 -0.177957 19.0036 0.534706L17.0966 3.4265L13.7093 4.37878C12.8779 4.61221 12.5672 5.6231 13.112 6.28255L15.3041 8.94561ZM18.8416 5.10955L19.998 3.3551L21.1544 5.10955C21.3124 5.34862 21.5507 5.52335 21.8271 5.60039L23.8841 6.17859L22.5586 7.78849C22.3695 8.01803 22.2734 8.30951 22.2885 8.60735L22.3997 10.747L20.438 9.96707C20.1567 9.85484 19.8394 9.85476 19.558 9.96707L17.5962 10.747L17.7074 8.60735C17.7225 8.30951 17.6264 8.01803 17.4374 7.78849L16.1118 6.17859L18.1689 5.60039C18.4452 5.52335 18.6835 5.34854 18.8416 5.10955Z" fill="#FFB000"/>
<path d="M10.8408 11.551C11.3061 12.0162 12.0604 12.0162 12.5256 11.551C12.9909 11.0858 12.9909 10.3314 12.5256 9.86617L8.04547 5.386C7.58028 4.92081 6.82592 4.92081 6.36066 5.386C5.8954 5.85118 5.8954 6.60554 6.36066 7.0708L10.8408 11.551Z" fill="#FFB000"/>
<path d="M29.44 11.551L33.9202 7.0708C34.3854 6.60562 34.3854 5.85126 33.9202 5.386C33.455 4.92081 32.7006 4.92081 32.2354 5.386L27.7552 9.86617C27.2899 10.3314 27.2899 11.0857 27.7552 11.551C28.2205 12.0162 28.9747 12.0162 29.44 11.551Z" fill="#FFB000"/>
</g>
<defs>
<clipPath id="clip0_1_496">
<rect width="40" height="40" fill="white"/>
</clipPath>
</defs>
</svg>
