<svg width="40" height="40" viewBox="0 0 40 40" fill="none" xmlns="http://www.w3.org/2000/svg">
<path d="M4.74608 27.6999C-1.58211 21.3716 -1.58198 11.0746 4.74608 4.74624C11.0744 -1.58208 21.3713 -1.58208 27.6995 4.74624C33.0682 10.115 33.8813 18.0996 30.1409 24.3348C30.1409 24.3348 29.8722 24.7855 30.2351 25.1481C32.3052 27.2181 38.5159 33.4289 38.5159 33.4289C40.1641 35.077 40.5565 37.3816 39.0948 38.8435L38.8432 39.0949C37.3815 40.5567 35.0768 40.1645 33.4287 38.5163C33.4287 38.5163 27.2312 32.3186 25.1653 30.2529C24.7851 29.8727 24.3345 30.1413 24.3345 30.1413C18.0994 33.8815 10.1148 33.0686 4.74608 27.6999ZM24.703 24.7033C29.379 20.0273 29.3789 12.4191 24.7029 7.74307C20.0269 3.06723 12.4186 3.0671 7.74279 7.74307C3.06681 12.4189 3.06681 20.0273 7.74279 24.7033C12.4188 29.379 20.0269 29.379 24.703 24.7033Z" fill="#FFB000"/>
<path d="M23.6686 15.2599C23.8862 15.2599 24.1075 15.2171 24.3207 15.127C25.1726 14.7665 25.5712 13.7835 25.2106 12.9315C22.9445 7.57635 16.7443 5.06324 11.3893 7.32933C10.5374 7.68987 10.1388 8.6728 10.4994 9.5248C10.86 10.3768 11.8427 10.7751 12.695 10.4147C16.3486 8.86866 20.5792 10.5834 22.1251 14.237C22.3956 14.876 23.0159 15.2599 23.6686 15.2599Z" fill="#FFB000"/>
</svg>
