<svg width="40" height="40" viewBox="0 0 40 40" fill="none" xmlns="http://www.w3.org/2000/svg">
<path d="M4.61269 31.1983C3.27609 31.1983 1.97028 30.8572 0.786844 30.1927C0.177948 29.8791 -0.0578877 29.0946 0.305866 28.5044C1.51445 26.5732 1.95088 24.2124 1.39752 21.9923C0.823972 19.6907 -0.00590874 17.7522 3.17147e-05 15.3156C0.0206253 6.76721 7.1358 -0.162922 15.6755 0.0029156C23.9238 0.16905 30.7216 7.10274 30.7217 15.3532C30.7218 26.1285 19.4292 33.6937 9.4598 29.5327C8.08568 30.6113 6.35849 31.1983 4.61269 31.1983ZM2.98857 28.5675C4.86655 29.1507 6.97867 28.6848 8.42686 27.2847C8.78368 26.9397 9.31743 26.8529 9.76514 27.067C18.3003 31.1478 28.3455 24.7515 28.3454 15.3532C28.3454 8.34014 22.6402 2.51979 15.6277 2.3786C8.40092 2.23504 2.39364 8.08797 2.37621 15.3214C2.37057 17.6357 3.27352 19.4852 3.76697 21.6775C4.28686 23.9879 4.013 26.431 2.98857 28.5675Z" fill="#FFB000"/>
<path d="M35.3859 40C33.6402 40 31.9129 39.4129 30.539 38.3345C25.2371 40.5472 18.9305 39.5395 14.5834 35.7854C14.0868 35.3565 14.0319 34.6063 14.4607 34.1096C14.8896 33.613 15.6398 33.558 16.1364 33.987C19.992 37.3166 25.6385 38.0656 30.2335 35.8688C30.6811 35.6546 31.2148 35.7415 31.5718 36.0865C33.0199 37.4865 35.1321 37.9527 37.0101 37.3692C35.8016 34.8485 35.6342 31.9608 36.5707 29.2874C36.5791 29.2633 36.5883 29.2397 36.5982 29.2161C37.2822 27.6038 37.6268 25.8901 37.6225 24.1231C37.615 21.0075 36.5786 18.1255 34.6252 15.7884C34.2044 15.2849 34.2714 14.5357 34.7749 14.1149C35.2783 13.694 36.0276 13.7611 36.4484 14.2646C38.7292 16.9933 39.99 20.4924 39.9987 24.1173C40.0038 26.1936 39.6009 28.2086 38.8014 30.1072C37.9616 32.5381 38.3479 35.1409 39.6927 37.3059C40.0567 37.8962 39.8207 38.6808 39.2116 38.9946C38.0284 39.6588 36.7223 39.9999 35.3859 40Z" fill="#FFB000"/>
<path d="M15.3603 17.2914C16.3986 17.2914 17.2403 16.4502 17.2403 15.4124C17.2403 14.3747 16.3986 13.5335 15.3603 13.5335C14.3221 13.5335 13.4804 14.3747 13.4804 15.4124C13.4804 16.4502 14.3221 17.2914 15.3603 17.2914Z" fill="#FFB000"/>
<path d="M8.43457 17.2914C9.47284 17.2914 10.3145 16.4502 10.3145 15.4124C10.3145 14.3747 9.47284 13.5335 8.43457 13.5335C7.3963 13.5335 6.55461 14.3747 6.55461 15.4124C6.55461 16.4502 7.3963 17.2914 8.43457 17.2914Z" fill="#FFB000"/>
<path d="M22.2861 17.2914C23.3244 17.2914 24.1661 16.4502 24.1661 15.4124C24.1661 14.3747 23.3244 13.5335 22.2861 13.5335C21.2478 13.5335 20.4062 14.3747 20.4062 15.4124C20.4062 16.4502 21.2478 17.2914 22.2861 17.2914Z" fill="#FFB000"/>
</svg>
