<svg width="40" height="40" viewBox="0 0 40 40" fill="none" xmlns="http://www.w3.org/2000/svg">
<path d="M35.0623 30.1249C34.1248 30.1249 33.2477 30.3876 32.5003 30.8432L29.602 27.9454C33.392 23.5761 33.3914 16.4235 29.6022 12.055L32.5003 9.15701C35.7116 11.163 40.0374 8.74842 39.9998 4.93769C39.9998 2.21522 37.7849 0.000321283 35.0623 0.000321283C31.2518 -0.0368658 28.8368 4.2884 30.8431 7.49976L27.945 10.3977C23.5758 6.60798 16.4234 6.60876 12.055 10.3977L9.15693 7.49969C11.1629 4.2884 8.74834 -0.0373345 4.93761 0.000243159C2.21514 0.000243159 0.000243155 2.21514 0.000243155 4.93769C-0.0369439 8.74827 4.28832 11.1632 7.49969 9.15693L10.3978 12.0549C6.6079 16.4243 6.60876 23.5769 10.398 27.9453L7.49976 30.8431C4.28847 28.837 -0.0373345 31.2516 0.000243155 35.0623C0.000243155 37.7848 2.21514 39.9997 4.93769 39.9997C8.74827 40.0369 11.1632 35.7117 9.15701 32.5003L12.0553 29.6025C16.4245 33.3919 23.5765 33.3912 27.9448 29.6025L30.8431 32.5003C28.8372 35.712 31.2518 40.0371 35.0624 39.9997C41.6123 39.7288 41.6109 30.3952 35.0623 30.1249ZM35.0623 2.34397C36.4925 2.34397 37.6561 3.50755 37.6561 4.93769C37.5136 8.37866 32.6106 8.37764 32.4686 4.93769C32.4686 3.50755 33.6321 2.34397 35.0623 2.34397ZM4.93769 7.5314C3.50747 7.5314 2.34397 6.36782 2.34397 4.93769C2.48646 1.49671 7.38945 1.49773 7.5314 4.93769C7.53148 6.3679 6.3679 7.5314 4.93769 7.5314ZM4.93769 37.6561C3.50747 37.6561 2.34397 36.4925 2.34397 35.0623C2.48646 31.6214 7.38945 31.6224 7.5314 35.0623C7.53148 36.4925 6.3679 37.6561 4.93769 37.6561ZM25.1041 28.7442C22.0362 30.5784 17.9638 30.5784 14.8959 28.7442V27.5312C15.1771 20.7582 24.8254 20.7634 25.1041 27.5312V28.7442ZM17.4063 17.4896C17.4063 16.0594 18.5699 14.8959 20 14.8959C23.441 15.0384 23.4399 19.9413 20 20.0833C18.5699 20.0833 17.4063 18.9198 17.4063 17.4896ZM27.4192 26.8819C27.1966 24.3175 25.6681 22.1224 23.5051 20.9632C26.5718 17.9107 24.3744 12.542 20 12.5523C15.6258 12.542 13.4281 17.9115 16.4951 20.9632C14.332 22.1224 12.8035 24.3175 12.581 26.8819C6.60673 20.537 11.195 9.84731 20.0002 9.87521C28.805 9.84724 33.3938 20.5388 27.4192 26.8819ZM35.0623 37.6561C33.6321 37.6561 32.4686 36.4925 32.4686 35.0623C32.6111 31.6214 37.5141 31.6224 37.6561 35.0623C37.6561 36.4925 36.4925 37.6561 35.0623 37.6561Z" fill="#FFB000"/>
</svg>
