<svg width="225" height="52" viewBox="0 0 225 52" fill="none" xmlns="http://www.w3.org/2000/svg">
<g clip-path="url(#clip0_1_712)">
<path d="M33.7712 13.9172C33.5452 12.7641 33.1499 11.6507 32.5982 10.6132C32.1517 9.77987 31.5413 9.04546 30.8036 8.45414C29.9531 10.4824 28.9421 12.7115 27.7706 15.1417C26.5992 17.5718 25.3109 20.0268 23.9058 22.5068C24.1301 23.4103 24.3638 24.3092 24.6068 25.2033C24.8498 26.0959 25.0741 27.0025 25.2704 27.9232C25.4667 28.8438 25.6443 29.7925 25.7938 30.7272C25.9439 31.7184 26.0437 32.7167 26.0929 33.7181C27.9357 32.9393 29.7207 32.0304 31.4345 30.9982C33.2726 29.8929 35.0524 28.6934 36.7668 27.4044C37.2902 25.8778 37.8899 24.3076 38.566 22.6938C39.239 21.0815 39.968 19.4878 40.683 17.9176C41.398 16.3474 42.1738 14.8239 42.9355 13.3518C43.6973 11.8797 44.4357 10.5057 45.146 9.23925C44.1019 9.39292 43.0881 9.70825 42.1411 10.1739C41.1418 10.6495 40.2009 11.2392 39.3371 11.9311C38.441 12.6421 37.612 13.4336 36.8602 14.2958C36.109 15.1615 35.4144 16.0747 34.7806 17.0297C34.1768 17.9391 33.641 18.892 33.1777 19.8804C32.7637 20.7602 32.429 21.6751 32.1776 22.6143C31.9345 23.4648 31.8473 23.4648 31.9159 22.6143C32.0905 20.6744 32.593 18.7781 33.402 17.0063C35.0274 13.3886 37.7496 10.3739 41.183 8.38871C42.9543 7.35878 44.8916 6.64554 46.9079 6.28104C47.4967 5.34637 48.0248 4.52389 48.4828 3.87429C48.8178 3.37465 49.1963 2.9055 49.6137 2.4723C49.7123 2.33063 49.8482 2.21902 50.0063 2.14984C50.1907 2.04551 50.394 1.97881 50.6045 1.95357C50.689 1.93899 50.7759 1.94542 50.8574 1.97231C50.9389 1.9992 51.0125 2.04572 51.0718 2.10777C51.1839 2.22927 51.1793 2.46294 51.0718 2.81344C50.7654 3.15758 50.4945 3.53179 50.2633 3.93037C49.9175 4.4865 49.5156 5.1875 49.0669 6.03804C49.5392 6.07203 50.0014 6.19076 50.4315 6.38854C50.8557 6.58571 51.2308 6.87463 51.5298 7.23441C51.8641 7.65871 52.1119 8.1446 52.2588 8.66444C52.4408 9.31619 52.5103 9.99417 52.4644 10.6693C52.3793 12.047 52.0169 13.3933 51.3989 14.6276C50.6775 16.1201 49.7969 17.5303 48.7725 18.8336C47.6133 20.326 46.3466 21.7318 44.9824 23.0396C43.5286 24.4406 42.0014 25.7635 40.4073 27.0025C39.9399 28.5977 39.5458 30.1368 39.2249 31.6198C38.9222 32.9662 38.7175 34.3329 38.6127 35.7089C38.516 36.8008 38.5631 37.9007 38.7529 38.9803C38.8751 39.7995 39.2434 40.5623 39.8091 41.1674C39.8389 41.2558 39.8354 41.3521 39.7993 41.4381C39.7631 41.5241 39.6968 41.5941 39.6128 41.6347C39.3666 41.7557 39.0873 41.7919 38.8183 41.7375C38.3896 41.6698 37.9736 41.5375 37.5846 41.3449C37.0208 41.0714 36.506 40.7067 36.0611 40.2654C35.6104 39.8329 35.2871 39.2849 35.1264 38.6812C34.9143 37.9401 34.8166 37.1711 34.8367 36.4006C34.8567 35.4441 34.9536 34.4908 35.1264 33.5499C35.3087 32.5124 35.5517 31.4188 35.8648 30.2785C34.0194 31.4965 32.0943 32.5894 30.1026 33.5499C28.4352 34.3719 26.6895 35.0248 24.8919 35.4986C24.7844 34.4565 24.6442 33.4798 24.4619 32.5591C24.2797 31.6385 24.074 30.7646 23.8497 29.928C23.6254 29.0915 23.3824 28.2971 23.0926 27.5353C22.8029 26.7736 22.5412 26.0165 22.2608 25.2687C21.0146 27.2845 19.7185 29.1897 18.3726 30.9842C17.1329 32.6527 15.7574 34.2158 14.2601 35.6575C13.012 36.878 11.5956 37.9135 10.0541 38.7326C8.77727 39.4327 7.3226 39.7415 5.87145 39.6205C5.01918 39.5809 4.18686 39.3492 3.43666 38.9429C2.81372 38.5999 2.25798 38.1471 1.79632 37.6063C1.39925 37.1318 1.08343 36.5949 0.861658 36.0174C0.673581 35.5602 0.550869 35.0788 0.497139 34.5873C0.43893 34.2972 0.485285 33.9959 0.627992 33.7368C0.744825 33.5826 0.922418 33.634 1.14674 33.8957C2.08739 34.7139 3.22696 35.27 4.45078 35.508C5.58678 35.6985 6.75191 35.6135 7.84827 35.2603C9.08203 34.8538 10.2385 34.2424 11.2691 33.4517C12.4825 32.5404 13.6117 31.5222 14.6433 30.4094C15.809 29.154 16.9013 27.8324 17.9146 26.4511C18.9801 24.993 20.0083 23.4742 20.999 21.8946C20.5971 20.8057 20.2232 19.6608 19.8634 18.4737C19.4818 17.1592 19.1698 15.8255 18.9287 14.4781C18.7253 13.4584 18.6376 12.419 18.667 11.3796C18.6964 10.4189 18.8908 9.47043 19.2418 8.57565C19.5928 7.69606 20.1245 6.89999 20.8027 6.23899C21.5754 5.5056 22.4898 4.93786 23.4899 4.57061C24.5568 4.13372 25.7086 3.94361 26.8593 4.01449C27.9365 4.08654 28.9825 4.40641 29.9157 4.94915L31.3504 1.77598C31.4955 1.41682 31.7227 1.09669 32.014 0.841317C32.2219 0.646117 32.4844 0.518942 32.7664 0.476784C32.8787 0.466328 32.9913 0.493781 33.0861 0.554768C33.181 0.615755 33.2527 0.706777 33.2898 0.813278C33.3982 1.2102 33.3752 1.63152 33.2244 2.01432C33.0842 2.48166 32.8832 3.10787 32.6262 3.84626C32.3692 4.58464 32.0514 5.42117 31.6915 6.3605C32.5116 7.31587 33.1272 8.42924 33.5001 9.63183C33.938 11.0538 34.0967 12.5471 33.9675 14.0294C33.9675 14.3752 33.9441 14.4967 33.8927 14.4453C33.8108 14.2814 33.7692 14.1004 33.7712 13.9172ZM28.7193 7.46808C27.6294 7.22499 26.4922 7.30622 25.448 7.70174C24.9537 7.88959 24.5091 8.1886 24.1488 8.57565C23.7146 9.02445 23.3464 9.53269 23.0553 10.0851C22.7371 10.6821 22.5042 11.3208 22.3636 11.9825C22.2175 12.6626 22.1875 13.3626 22.2748 14.0528C22.3402 14.8519 22.4337 15.623 22.5459 16.3894C22.658 17.1558 22.7935 17.8709 22.9524 18.5999C24.0958 16.6216 25.1489 14.6821 26.1116 12.7816C27.0743 10.8812 27.9435 9.10997 28.7193 7.46808ZM41.6036 23.2919C42.7315 22.2171 43.7596 21.1375 44.688 20.0533C45.5482 19.0529 46.3294 17.9873 47.0247 16.8661C47.6164 15.9246 48.1007 14.9198 48.4688 13.8705C48.7781 13.0219 48.8977 12.1159 48.8193 11.2161C48.7805 10.7118 48.6061 10.2273 48.3145 9.81406C48.0904 9.52777 47.7728 9.32931 47.4173 9.25329C46.9499 10.2253 46.4592 11.2675 45.9592 12.3891C45.4591 13.5107 44.9497 14.665 44.4497 15.8613C43.9497 17.0577 43.4496 18.2821 42.9636 19.5346C42.4776 20.787 42.0383 22.0255 41.6036 23.2919Z" fill="#014225" stroke="#024225" stroke-miterlimit="10"/>
<path d="M61.3429 23.6047C61.3399 23.6729 61.3221 23.7396 61.2906 23.8002C61.2591 23.8607 61.2147 23.9136 61.1606 23.9552C61.064 24.0314 60.9468 24.077 60.8241 24.0861C60.7676 24.092 60.7105 24.0859 60.6565 24.0682C60.6026 24.0505 60.553 24.0215 60.511 23.9833C60.4654 23.9329 60.434 23.8713 60.42 23.8048C60.4061 23.7382 60.41 23.6692 60.4316 23.6047C60.3946 23.3243 60.3774 23.0417 60.3802 22.7588C60.3826 22.4334 60.3385 22.1092 60.2493 21.7961C60.1681 21.494 60.0066 21.2195 59.782 21.0017C59.4787 20.7499 59.0966 20.6126 58.7024 20.6138C58.0843 20.5973 57.4706 20.7219 56.9079 20.9783C56.2888 21.2535 55.7102 21.612 55.1881 22.0438C54.6123 22.5134 54.0819 23.036 53.6038 23.6047C53.1004 24.1885 52.6322 24.8018 52.2019 25.4413C51.7902 26.0507 51.4157 26.6843 51.0803 27.3387C50.7578 27.9743 50.4961 28.5584 50.2858 29.0959C50.128 29.5283 50.0031 29.9719 49.9119 30.4231C49.7994 30.8911 49.7725 31.3756 49.8325 31.8531C49.8538 32.0526 49.9153 32.2457 50.0133 32.4208C50.1113 32.5959 50.2437 32.7494 50.4026 32.8719C50.7251 33.1149 51.2672 33.1477 52.0289 32.9747C52.5142 32.8124 52.9622 32.555 53.3468 32.2176C53.916 31.7643 54.4589 31.2791 54.9731 30.7642C55.5246 30.2081 56.062 29.6333 56.5714 29.0445C57.0117 28.5466 57.4251 28.0255 57.8098 27.4836C58.1043 26.8761 58.3613 26.2825 58.5763 25.6984C58.7659 25.2128 58.9099 24.7106 59.0062 24.1982C59.1452 24.1462 59.2935 24.1239 59.4416 24.1327C59.5897 24.1416 59.7343 24.1814 59.8661 24.2496C60.226 24.3955 60.5533 24.6115 60.8288 24.8852C61.1205 25.1672 61.354 25.5039 61.5158 25.876C61.5969 26.0383 61.6426 26.2159 61.6498 26.3972C61.6571 26.5785 61.6257 26.7592 61.5578 26.9275C61.3989 27.2593 61.2073 27.6425 60.983 28.0864C60.7587 28.5304 60.5157 28.9884 60.3054 29.4884C60.0951 29.9885 59.8754 30.4231 59.6838 30.8904C59.5109 31.3003 59.3672 31.722 59.2539 32.1522C59.1644 32.4472 59.1327 32.7566 59.1604 33.0635C59.1687 33.1676 59.2163 33.2647 59.2936 33.335C59.3708 33.4053 59.4719 33.4436 59.5763 33.4421H59.9689C60.7654 33.1958 61.5044 32.7921 62.142 32.255C62.8394 31.6816 63.4838 31.0466 64.0674 30.3577C64.6689 29.6487 65.2335 28.9094 65.7592 28.1425C66.2857 27.3699 66.7764 26.6626 67.2312 26.0208C67.2648 25.9705 67.309 25.9282 67.3607 25.8967C67.4123 25.8652 67.4702 25.8454 67.5303 25.8386C67.6467 25.8201 67.7659 25.8432 67.8668 25.904C67.9152 25.9342 67.9565 25.9744 67.988 26.022C68.0194 26.0696 68.0403 26.1234 68.0491 26.1797C68.0592 26.2509 68.0518 26.3235 68.0273 26.3911C68.0029 26.4588 67.9622 26.5194 67.9089 26.5676C67.4384 27.2281 66.9711 27.9011 66.5069 28.5865C66.0427 29.2719 65.5566 29.9402 65.0488 30.5913C64.5441 31.2394 64.0113 31.8625 63.4505 32.4607C62.8846 33.06 62.2703 33.6118 61.6139 34.1104C61.455 34.2319 61.2634 34.3767 61.0297 34.5403C60.7766 34.715 60.511 34.8712 60.2353 35.0076C59.9254 35.159 59.6034 35.284 59.2726 35.3815C58.9185 35.4886 58.5484 35.5329 58.179 35.5123C57.6689 35.5043 57.1715 35.352 56.7443 35.0731C56.3907 34.8225 56.1192 34.4729 55.9639 34.0683C55.8019 33.6198 55.7444 33.1403 55.7956 32.6663C55.8442 32.1256 55.9717 31.595 56.1742 31.0914C55.6881 31.6273 55.1756 32.1569 54.6366 32.6803C54.1212 33.1831 53.5732 33.6514 52.9963 34.0823C52.4833 34.4665 51.9302 34.7939 51.3466 35.059C50.8549 35.2893 50.314 35.3953 49.7717 35.3675C49.0225 35.3739 48.2914 35.1378 47.6874 34.6945C47.2401 34.325 46.9024 33.8401 46.7107 33.2925C46.5303 32.7522 46.448 32.184 46.4677 31.6148C46.4724 31.125 46.524 30.6367 46.6219 30.1567C46.8383 29.2998 47.1519 28.4703 47.5566 27.6845C48.0224 26.7413 48.5747 25.8433 49.2063 25.002C49.88 24.1018 50.6205 23.2536 51.4214 22.4644C52.2054 21.6833 53.0792 20.9978 54.0244 20.4222C54.9022 19.884 55.8596 19.4881 56.8612 19.2492C57.8132 19.0244 58.8066 19.0437 59.7493 19.3053C60.1346 19.4078 60.48 19.6244 60.74 19.9268C60.9829 20.2316 61.1638 20.5808 61.2728 20.955C61.3889 21.3752 61.4502 21.8088 61.455 22.2448C61.4568 22.7005 61.4193 23.1555 61.3429 23.6047Z" fill="#014225" stroke="#024225" stroke-miterlimit="10"/>
<path d="M79.863 23.6047C79.86 23.6729 79.8422 23.7396 79.8107 23.8002C79.7792 23.8607 79.7348 23.9136 79.6807 23.9552C79.5837 24.0307 79.4667 24.0762 79.3442 24.0861C79.2877 24.093 79.2303 24.0873 79.1762 24.0696C79.1221 24.0518 79.0726 24.0223 79.0311 23.9832C78.9842 23.9337 78.9519 23.872 78.9379 23.8052C78.9238 23.7384 78.9286 23.669 78.9517 23.6047C78.9123 23.3245 78.8951 23.0417 78.9003 22.7588C78.9027 22.4333 78.8586 22.1092 78.7694 21.7961C78.6865 21.4947 78.5252 21.2206 78.3021 21.0017C77.9988 20.7499 77.6167 20.6126 77.2225 20.6138C76.6044 20.5973 75.9907 20.7219 75.428 20.9783C74.8083 21.2524 74.2295 21.611 73.7082 22.0438C73.132 22.5145 72.6001 23.0369 72.1193 23.6047C71.6172 24.1896 71.1492 24.8028 70.7173 25.4413C70.3054 26.0496 69.9324 26.6833 69.6004 27.3387C69.2779 27.9742 69.0162 28.5584 68.8059 29.0958C68.6464 29.5281 68.5199 29.9718 68.4274 30.4231C68.3172 30.8914 68.2903 31.3755 68.3479 31.8531C68.3693 32.0531 68.4313 32.2467 68.5301 32.4219C68.629 32.597 68.7626 32.7502 68.9227 32.8719C69.2452 33.1149 69.7873 33.1476 70.549 32.9747C71.0328 32.8122 71.4792 32.5548 71.8622 32.2176C72.4334 31.7667 72.9765 31.2813 73.4886 30.7642C74.0431 30.2097 74.5774 29.6364 75.0915 29.0444C75.5304 28.5466 75.9423 28.0256 76.3253 27.4836C76.6244 26.876 76.8767 26.2825 77.0964 25.6984C77.2872 25.2068 77.4311 24.6982 77.5263 24.1795C77.6645 24.1276 77.812 24.1053 77.9594 24.1142C78.1067 24.123 78.2506 24.1628 78.3815 24.2309C78.7429 24.3766 79.0717 24.5926 79.3489 24.8665C79.6406 25.1485 79.8741 25.4851 80.0359 25.8572C80.1165 26.0198 80.1616 26.1976 80.168 26.379C80.1745 26.5603 80.1422 26.7409 80.0733 26.9087C79.919 27.2405 79.7274 27.6238 79.5031 28.0677C79.2788 28.5117 79.0358 28.9697 78.8255 29.4697C78.6152 29.9698 78.3909 30.4044 78.1993 30.8717C78.0297 31.2824 77.8876 31.704 77.774 32.1335C77.6846 32.4284 77.6528 32.7379 77.6805 33.0448C77.6877 33.1493 77.735 33.2471 77.8125 33.3176C77.89 33.3881 77.9917 33.426 78.0965 33.4233H78.489C79.2855 33.1771 80.0245 32.7734 80.6621 32.2363C81.3584 31.6617 82.0027 31.0268 82.5875 30.339C83.189 29.63 83.7536 28.8907 84.2792 28.1238C84.8058 27.3512 85.2965 26.6439 85.7513 26.0021C85.7845 25.9514 85.8285 25.9087 85.8803 25.8771C85.932 25.8456 85.9901 25.826 86.0504 25.8198C86.1668 25.8017 86.2858 25.8249 86.3869 25.8853C86.434 25.9169 86.4743 25.9576 86.5056 26.0049C86.5369 26.0523 86.5585 26.1053 86.5692 26.161C86.5765 26.2325 86.5672 26.3046 86.542 26.3719C86.5169 26.4391 86.4766 26.4997 86.4243 26.5489C85.957 27.2094 85.4896 27.8823 85.0223 28.5678C84.555 29.2532 84.0689 29.9215 83.5642 30.5726C83.0595 31.2207 82.5252 31.8438 81.9613 32.442C81.3981 33.0424 80.7853 33.5942 80.1293 34.0916C79.9705 34.2131 79.7742 34.358 79.5405 34.5216C79.2886 34.6984 79.0229 34.8546 78.746 34.9889C78.4365 35.1411 78.1144 35.2661 77.7833 35.3628C77.4294 35.4705 77.0592 35.5148 76.6898 35.4936C76.1812 35.4847 75.6856 35.3325 75.2597 35.0543C74.9048 34.8052 74.6329 34.4551 74.4793 34.0496C74.3174 33.6011 74.2598 33.1216 74.3111 32.6476C74.3596 32.1069 74.4872 31.5763 74.6896 31.0727C74.2036 31.6086 73.6911 32.1382 73.1521 32.6616C72.6366 33.1644 72.0887 33.6327 71.5118 34.0636C70.9974 34.4458 70.4445 34.7732 69.8621 35.0403C69.3702 35.2703 68.8294 35.3762 68.2872 35.3488C67.5379 35.3558 66.8065 35.1197 66.2029 34.6758C65.7556 34.3062 65.4178 33.8214 65.2261 33.2738C65.0465 32.7333 64.9626 32.1655 64.9784 31.5961C64.9868 31.1062 65.0399 30.6182 65.1373 30.138C65.3556 29.2816 65.6691 28.4524 66.072 27.6658C66.5413 26.7235 67.095 25.8257 67.7264 24.9833C68.3998 24.0843 69.1387 23.2361 69.9368 22.4457C70.7228 21.6668 71.5962 20.9814 72.5399 20.4035C73.4181 19.8661 74.3753 19.4703 75.3766 19.2305C76.3302 19.0059 77.3251 19.0252 78.2694 19.2866C78.654 19.3877 78.9982 19.6047 79.2554 19.9081C79.5018 20.2106 79.6832 20.5606 79.7882 20.9363C79.9044 21.3565 79.9656 21.7901 79.9704 22.2261C79.9748 22.6879 79.9388 23.1492 79.863 23.6047Z" fill="#014225" stroke="#024225" stroke-miterlimit="10"/>
<path d="M100.942 29.339C100.596 29.8063 100.134 30.3905 99.5401 31.0961C98.958 31.8089 98.3338 32.4862 97.6707 33.1244C97.0266 33.7467 96.3239 34.3054 95.5724 34.7927C94.9639 35.2149 94.2469 35.4534 93.5068 35.4797C93.1456 35.4802 92.7875 35.4136 92.4506 35.2834C92.1206 35.1618 91.8254 34.9613 91.5907 34.6993C91.3425 34.4107 91.1648 34.0683 91.072 33.6992C90.9557 33.2268 90.9335 32.7361 91.0066 32.2551C91.0971 31.6915 91.2235 31.1342 91.3851 30.5867C91.5665 29.9859 91.7787 29.3947 92.0207 28.8156C92.2824 28.1925 92.5939 27.5211 92.9553 26.8014C93.3168 26.0817 93.7202 25.2794 94.1657 24.3946C94.4211 23.9052 94.6474 23.4012 94.8434 22.8851C95.0001 22.5699 95.0493 22.2121 94.9836 21.8663C94.9088 21.6607 94.6798 21.628 94.3106 21.7635C93.6733 22.0711 93.0819 22.4659 92.5535 22.9365C91.6499 23.6656 90.843 24.3806 90.1327 25.0816C89.4223 25.7826 88.7042 26.5786 87.9783 27.4697C87.3285 28.6752 86.7632 29.9244 86.2865 31.2083C85.8108 32.5114 85.4618 33.8573 85.2444 35.2273C85.2117 35.3862 85.0808 35.433 84.8565 35.3722C84.6004 35.2986 84.3575 35.1851 84.1368 35.0358C83.8848 34.868 83.6541 34.6703 83.4498 34.4469C83.2746 34.2935 83.1629 34.0802 83.1367 33.8487C83.295 32.5888 83.588 31.3495 84.0106 30.1521C84.4375 28.9433 84.9188 27.7345 85.4547 26.5256C85.9921 25.3199 86.5482 24.1142 87.1184 22.9178C87.6885 21.7215 88.2026 20.5064 88.6559 19.2773C88.7989 19.2253 88.9509 19.203 89.1028 19.2118C89.2547 19.2207 89.4032 19.2605 89.5392 19.3287C89.8966 19.4729 90.2234 19.6838 90.5019 19.9503C90.7851 20.2271 91.0079 20.5597 91.1561 20.927C91.2323 21.0895 91.2737 21.2662 91.2778 21.4456C91.2818 21.6251 91.2483 21.8034 91.1795 21.9691C91.0949 22.1984 90.9917 22.4203 90.8711 22.6328C90.7533 22.845 90.6222 23.0495 90.4785 23.245C90.9832 22.759 91.5082 22.2916 92.0534 21.843C92.5821 21.3945 93.1394 20.9808 93.7218 20.6045C94.2633 20.2509 94.8376 19.9504 95.4369 19.7073C95.9875 19.4799 96.5716 19.3441 97.166 19.3054C97.4467 19.2914 97.7233 19.3775 97.9464 19.5484C98.2086 19.7317 98.435 19.9614 98.6147 20.226C98.7914 20.4871 98.9182 20.7786 98.9886 21.0859C99.0601 21.3589 99.0337 21.6483 98.9138 21.9037C98.2502 23.3618 97.6505 24.5893 97.1146 25.5863C96.5787 26.5833 96.1114 27.4774 95.7126 28.2688C95.3291 29.0051 94.9859 29.7617 94.6845 30.5353C94.3884 31.314 94.1708 32.1202 94.0349 32.9421C94.0306 33.0199 94.0306 33.098 94.0349 33.1758C94.0459 33.2679 94.0929 33.3519 94.1657 33.4094C94.2578 33.4839 94.3747 33.5207 94.4929 33.5122C94.7023 33.4915 94.9056 33.4295 95.0911 33.33C95.9371 32.8951 96.7319 32.3668 97.4604 31.7551C98.5216 30.8723 99.4809 29.8739 100.32 28.7782C100.685 28.3108 101.021 27.8435 101.325 27.3762C101.629 26.9088 101.937 26.4415 102.26 26.0349C102.291 25.9869 102.331 25.9459 102.378 25.9145C102.426 25.8831 102.48 25.8621 102.536 25.8527C102.644 25.837 102.755 25.8601 102.849 25.9181C102.895 25.949 102.934 25.9898 102.963 26.0374C102.992 26.085 103.011 26.1384 103.017 26.1938C103.022 26.264 103.014 26.3345 102.991 26.4011C102.969 26.4677 102.933 26.5292 102.886 26.5817L100.942 29.339Z" fill="#014225" stroke="#024225" stroke-miterlimit="10"/>
<path d="M90.9993 49.0327C92.2399 48.9175 93.4536 48.6019 94.5931 48.098C95.7517 47.5742 96.8488 46.9237 97.8644 46.1586C98.9374 45.3496 99.9339 44.4438 100.841 43.4527C101.803 42.4116 102.708 41.3196 103.552 40.1814C104.406 39.0287 105.22 37.8307 105.996 36.5876C106.772 35.3445 107.496 34.1092 108.169 32.8817L107.935 32.8537C107.216 33.5385 106.434 34.1535 105.599 34.6903C104.909 35.1549 104.093 35.3948 103.262 35.3772C102.513 35.3836 101.782 35.1476 101.178 34.7043C100.732 34.3344 100.396 33.8496 100.206 33.3023C100.024 32.7623 99.94 32.1941 99.9581 31.6246C99.9628 31.1347 100.014 30.6465 100.112 30.1665C100.329 29.3095 100.642 28.4801 101.047 27.6943C101.513 26.7511 102.065 25.8531 102.697 25.0118C103.372 24.1127 104.112 23.2645 104.912 22.4742C105.696 21.6931 106.57 21.0076 107.515 20.432C108.393 19.8946 109.35 19.4987 110.352 19.259C111.304 19.0342 112.297 19.0535 113.24 19.315C113.626 19.4162 113.971 19.6331 114.23 19.9366C114.477 20.239 114.658 20.589 114.763 20.9647C114.879 21.385 114.941 21.8186 114.945 22.2546C114.956 22.7238 114.925 23.1929 114.852 23.6566C114.849 23.7248 114.831 23.7915 114.8 23.852C114.768 23.9126 114.724 23.9655 114.67 24.0071C114.573 24.0833 114.456 24.1288 114.333 24.1379C114.277 24.1439 114.22 24.1378 114.166 24.1201C114.112 24.1024 114.062 24.0734 114.02 24.0351C113.975 23.9842 113.944 23.9226 113.93 23.8563C113.917 23.79 113.92 23.7212 113.941 23.6566C113.904 23.3762 113.886 23.0935 113.889 22.8107C113.892 22.4852 113.848 22.161 113.758 21.848C113.677 21.5458 113.516 21.2713 113.291 21.0535C112.988 20.8018 112.606 20.6645 112.211 20.6656C111.593 20.6491 110.98 20.7737 110.417 21.0301C109.798 21.3053 109.219 21.6638 108.697 22.0957C108.122 22.5664 107.592 23.0889 107.113 23.6566C106.609 24.2403 106.141 24.8536 105.711 25.4932C105.299 26.1025 104.925 26.7361 104.589 27.3905C104.267 28.0261 104.005 28.6103 103.795 29.1477C103.639 29.5808 103.514 30.0243 103.421 30.4749C103.308 30.9429 103.282 31.4274 103.342 31.905C103.363 32.1045 103.424 32.2976 103.522 32.4727C103.62 32.6478 103.753 32.8012 103.912 32.9237C104.234 33.1667 104.776 33.1995 105.538 33.0266C105.936 32.9142 106.308 32.7235 106.632 32.4658C107.094 32.125 107.534 31.7551 107.949 31.3582C108.417 30.9282 108.884 30.4609 109.314 29.9562C109.744 29.4515 110.174 28.9794 110.538 28.5074L112.618 24.451C112.759 24.3986 112.909 24.375 113.059 24.3814C113.209 24.3878 113.356 24.4242 113.492 24.4884C113.842 24.6205 114.16 24.8242 114.427 25.0866C114.69 25.3494 114.89 25.6692 115.011 26.0213C115.071 26.1908 115.096 26.3712 115.082 26.5508C115.068 26.7303 115.017 26.905 114.931 27.0634C113.286 30.2911 111.613 33.2805 109.912 36.0315C108.346 38.6033 106.524 41.0099 104.472 43.2144C102.661 45.1609 100.552 46.8077 98.2243 48.0933C95.9154 49.3294 93.3623 50.0411 90.747 50.1776C90.518 50.1776 90.3731 50.1215 90.303 50.0047C90.2687 49.9509 90.2482 49.8896 90.2433 49.826C90.2384 49.7624 90.2493 49.6986 90.2749 49.6402C90.3412 49.4948 90.4404 49.3667 90.5647 49.2663C90.6833 49.1472 90.8345 49.0659 90.9993 49.0327Z" fill="#014225" stroke="#024225" stroke-miterlimit="10"/>
<path d="M131.081 23.6047C131.078 23.6729 131.06 23.7396 131.029 23.8002C130.997 23.8607 130.953 23.9136 130.899 23.9552C130.802 24.0314 130.685 24.077 130.562 24.0861C130.506 24.0923 130.449 24.0864 130.395 24.0687C130.341 24.0509 130.291 24.0218 130.249 23.9832C130.204 23.9329 130.172 23.8713 130.158 23.8047C130.144 23.7382 130.148 23.6692 130.17 23.6047C130.133 23.3243 130.116 23.0417 130.118 22.7588C130.121 22.4333 130.077 22.1092 129.988 21.7961C129.906 21.494 129.745 21.2195 129.52 21.0017C129.217 20.7499 128.835 20.6126 128.441 20.6138C127.823 20.5973 127.209 20.7219 126.646 20.9783C126.026 21.2524 125.448 21.611 124.926 22.0438C124.35 22.5145 123.818 23.037 123.337 23.6047C122.835 24.1896 122.367 24.8028 121.935 25.4413C121.525 26.0507 121.152 26.6843 120.819 27.3387C120.496 27.9743 120.234 28.5584 120.024 29.0959C119.865 29.5281 119.738 29.9718 119.646 30.4231C119.537 30.8917 119.511 31.3758 119.571 31.8531C119.591 32.0528 119.652 32.2463 119.751 32.4215C119.849 32.5967 119.981 32.7499 120.141 32.8719C120.463 33.1149 121.005 33.1476 121.767 32.9747C122.252 32.8124 122.7 32.555 123.085 32.2176C123.654 31.7643 124.197 31.2791 124.711 30.7642C125.263 30.2081 125.8 29.6333 126.31 29.0445C126.75 28.5465 127.163 28.0255 127.548 27.4836C127.843 26.8761 128.095 26.2825 128.315 25.6984C128.505 25.2068 128.649 24.6982 128.744 24.1795C128.883 24.1275 129.032 24.1052 129.18 24.114C129.328 24.1229 129.473 24.1627 129.604 24.2309C129.964 24.3779 130.291 24.5938 130.567 24.8665C130.859 25.1485 131.092 25.4851 131.254 25.8572C131.335 26.0195 131.381 26.1972 131.388 26.3785C131.395 26.5598 131.364 26.7405 131.296 26.9087C131.137 27.2406 130.946 27.6238 130.721 28.0677C130.497 28.5117 130.254 28.9697 130.044 29.4697C129.833 29.9698 129.609 30.4044 129.422 30.8717C129.249 31.2816 129.105 31.7033 128.992 32.1335C128.903 32.4284 128.871 32.7379 128.899 33.0448C128.907 33.1489 128.955 33.246 129.032 33.3163C129.109 33.3866 129.21 33.4249 129.315 33.4234H129.707C130.504 33.1771 131.243 32.7734 131.88 32.2363C132.578 31.6629 133.222 31.0279 133.806 30.339C134.407 29.63 134.972 28.8907 135.497 28.1238C136.027 27.3512 136.518 26.6439 136.97 26.0021C137.003 25.9514 137.047 25.9087 137.098 25.8771C137.15 25.8456 137.208 25.826 137.269 25.8199C137.385 25.8013 137.504 25.8245 137.605 25.8853C137.653 25.9161 137.694 25.9566 137.725 26.004C137.757 26.0515 137.778 26.105 137.787 26.161C137.798 26.2322 137.79 26.3048 137.766 26.3724C137.741 26.4401 137.7 26.5007 137.647 26.5489C137.177 27.2094 136.709 27.8823 136.245 28.5678C135.778 29.2547 135.31 29.923 134.787 30.5726C134.264 31.2222 133.75 31.8485 133.184 32.442C132.621 33.0424 132.008 33.5942 131.352 34.0916C131.193 34.2131 131.002 34.358 130.763 34.5216C130.512 34.6974 130.248 34.8536 129.974 34.9889C129.663 35.1395 129.341 35.2645 129.011 35.3628C128.657 35.4699 128.287 35.5142 127.917 35.4936C127.407 35.4856 126.91 35.3333 126.483 35.0543C126.129 34.8037 125.857 34.4542 125.702 34.0496C125.54 33.6011 125.483 33.1216 125.534 32.6476C125.582 32.107 125.71 31.5763 125.912 31.0727C125.426 31.6086 124.914 32.1382 124.375 32.6616C123.859 33.1644 123.312 33.6327 122.735 34.0636C122.221 34.4468 121.668 34.7743 121.085 35.0403C120.593 35.2703 120.052 35.3762 119.51 35.3488C118.761 35.3558 118.029 35.1197 117.426 34.6758C116.978 34.3062 116.641 33.8214 116.449 33.2738C116.269 32.7335 116.186 32.1654 116.206 31.5961C116.211 31.1063 116.262 30.618 116.36 30.138C116.577 29.2811 116.89 28.4516 117.295 27.6658C117.761 26.7226 118.313 25.8246 118.945 24.9833C119.618 24.0831 120.359 23.2349 121.16 22.4457C121.944 21.6646 122.817 20.9791 123.763 20.4035C124.64 19.8653 125.598 19.4694 126.599 19.2305C127.552 19.0059 128.545 19.0252 129.488 19.2866C129.872 19.3877 130.216 19.6047 130.474 19.9081C130.705 20.2118 130.875 20.5579 130.974 20.9269C131.09 21.3472 131.151 21.7807 131.156 22.2167C131.169 22.6807 131.144 23.1449 131.081 23.6047Z" fill="#014225" stroke="#024225" stroke-miterlimit="10"/>
<path d="M138.263 33.704C138.713 33.7616 139.17 33.6749 139.567 33.4563C140.109 33.1848 140.619 32.8524 141.086 32.4655C141.654 32.009 142.189 31.514 142.689 30.9841C143.228 30.417 143.744 29.836 144.236 29.2409C144.731 28.6427 145.17 28.0586 145.638 27.4978C146.105 26.937 146.432 26.4322 146.745 25.9976C146.776 25.9492 146.816 25.9079 146.863 25.8765C146.911 25.845 146.965 25.8242 147.021 25.8154C147.13 25.7997 147.241 25.8228 147.334 25.8808C147.381 25.9119 147.421 25.9525 147.452 26C147.483 26.0474 147.503 26.1008 147.512 26.1565C147.523 26.2258 147.518 26.2966 147.498 26.3638C147.477 26.4309 147.442 26.4927 147.395 26.5444C146.946 27.1893 146.448 27.8623 145.9 28.5633C145.353 29.2643 144.787 29.9653 144.194 30.6429C143.6 31.3205 142.988 31.9795 142.324 32.5963C141.721 33.1808 141.073 33.7168 140.385 34.1993C139.784 34.6247 139.133 34.9732 138.446 35.2368C137.843 35.4753 137.193 35.5651 136.548 35.4985C136.172 35.4783 135.813 35.3318 135.529 35.0826C135.293 34.8333 135.131 34.5223 135.062 34.1853C134.968 33.7619 134.921 33.3293 134.922 32.8954C134.922 32.4281 134.922 31.8814 134.922 31.3065C134.963 30.6077 135.098 29.9175 135.324 29.2549C135.595 28.367 135.955 27.3856 136.417 26.2453C136.88 25.105 137.408 23.9087 138.016 22.6562C138.623 21.4038 139.273 20.1233 139.955 18.8802C140.637 17.6371 141.357 16.4547 142.077 15.3285C142.728 14.3086 143.432 13.3227 144.184 12.3749C144.746 11.6524 145.389 10.9969 146.1 10.4215C146.304 10.2247 146.548 10.0735 146.814 9.9776C147.081 9.88174 147.365 9.84348 147.647 9.86536C147.978 9.93393 148.295 10.0605 148.582 10.2392C148.917 10.4421 149.23 10.6786 149.517 10.9449C149.8 11.209 150.045 11.5109 150.246 11.8422C150.432 12.1397 150.543 12.4782 150.568 12.8282C150.551 13.641 150.351 14.4396 149.984 15.1649C149.52 16.1577 148.976 17.1111 148.358 18.0156C147.678 19.0188 146.9 20.0594 146.021 21.1374C145.142 22.2154 144.244 23.2653 143.325 24.2872C142.412 25.3122 141.519 26.2843 140.647 27.2034C139.768 28.138 139.002 28.9278 138.343 29.6194C137.996 30.5335 137.768 31.4885 137.665 32.4608C137.562 33.1992 137.777 33.6152 138.263 33.704ZM148.647 12.7254C148.423 12.7254 148.101 12.9311 147.685 13.3376C147.17 13.8587 146.693 14.4146 146.255 15.0013C145.717 15.707 145.142 16.5295 144.535 17.4782C143.927 18.4269 143.32 19.4176 142.712 20.4691C142.105 21.5206 141.511 22.5955 140.932 23.6937C140.352 24.7919 139.834 25.8621 139.385 26.8856C140.369 25.7204 141.323 24.5614 142.245 23.4086C143.167 22.2559 144.018 21.1545 144.797 20.1046C145.577 19.0531 146.273 18.0857 146.881 17.1884C147.488 16.2912 147.97 15.5201 148.325 14.8518C148.61 14.3676 148.824 13.8451 148.961 13.3002C149.031 12.9404 148.928 12.7441 148.647 12.7254Z" fill="#014225" stroke="#024225" stroke-miterlimit="10"/>
<path d="M133.734 51.5324C133.652 51.5466 133.568 51.5385 133.489 51.5089C133.411 51.4793 133.343 51.4293 133.29 51.3642C133.256 51.3105 133.235 51.2488 133.231 51.185C133.227 51.1212 133.239 51.0574 133.267 50.9997C133.33 50.8522 133.428 50.7223 133.552 50.6211C133.691 50.5001 133.864 50.4265 134.048 50.4109C135.523 50.2651 136.964 49.8783 138.314 49.2659C139.655 48.6497 140.912 47.8644 142.053 46.9292C143.259 45.938 144.366 44.8314 145.357 43.6252C146.414 42.345 147.4 41.008 148.31 39.6201C149.226 38.215 150.094 36.7476 150.914 35.2179C151.733 33.6882 152.512 32.1615 153.25 30.638C152.745 31.2954 152.225 31.9185 151.689 32.5074C151.15 33.0799 150.567 33.6096 149.946 34.0916C149.787 34.2131 149.591 34.358 149.348 34.5216C149.086 34.6973 148.811 34.8535 148.525 34.9889C148.212 35.1376 147.887 35.2595 147.553 35.3534C147.197 35.4479 146.829 35.4951 146.46 35.4936C146.063 35.4971 145.676 35.3634 145.366 35.1151C145.079 34.867 144.867 34.5431 144.754 34.1804C144.618 33.7551 144.561 33.3084 144.586 32.8625C144.606 32.3306 144.685 31.8026 144.82 31.2876C145.081 30.3517 145.408 29.4351 145.796 28.5444C146.236 27.4944 146.703 26.4149 147.198 25.3058C147.694 24.1966 148.175 23.1062 148.642 22.0345C149.11 20.9783 149.484 20.0483 149.764 19.2305C149.907 19.1784 150.059 19.1561 150.211 19.165C150.363 19.1738 150.511 19.2136 150.647 19.2819C151.005 19.426 151.331 19.6369 151.61 19.9034C151.9 20.1739 152.131 20.5018 152.287 20.8661C152.363 21.0286 152.405 21.205 152.41 21.3843C152.415 21.5636 152.383 21.7419 152.316 21.9083C152.175 22.2011 151.918 22.6825 151.544 23.3523C151.175 24.0206 150.759 24.7824 150.311 25.6329C149.862 26.4835 149.409 27.3574 148.955 28.2593C148.502 29.1613 148.138 29.9884 147.853 30.7315C147.609 31.3293 147.452 31.9587 147.385 32.6008C147.352 33.0962 147.525 33.3532 147.909 33.3719H148.264C149.019 33.148 149.723 32.7763 150.334 32.2784C151.009 31.7353 151.635 31.1332 152.203 30.4791C152.796 29.8018 153.349 29.0903 153.858 28.3481C154.372 27.6004 154.848 26.9087 155.302 26.2638L157.045 22.5812C157.601 21.4129 158.157 20.3287 158.713 19.3426C158.854 19.2914 159.003 19.2683 159.152 19.2748C159.301 19.2812 159.447 19.317 159.583 19.38C159.934 19.5096 160.252 19.7137 160.517 19.9782C160.782 20.2401 160.982 20.5602 161.101 20.9128C161.163 21.0813 161.188 21.2608 161.175 21.4396C161.162 21.6184 161.112 21.7925 161.027 21.9503C160.017 23.9131 158.994 25.9787 157.956 28.1472C156.919 30.3156 155.803 32.4575 154.61 34.573C153.433 36.6667 152.143 38.6948 150.745 40.6483C149.395 42.5466 147.846 44.295 146.123 45.8637C144.453 47.3859 142.574 48.6621 140.543 49.6537C138.411 50.6992 136.101 51.3364 133.734 51.5324Z" fill="#014225" stroke="#024225" stroke-miterlimit="10"/>
<path d="M174.646 23.6053C174.643 23.6731 174.626 23.7396 174.595 23.8001C174.565 23.8606 174.521 23.9137 174.468 23.9558C174.369 24.0314 174.251 24.0768 174.127 24.0866C174.07 24.0926 174.013 24.0865 173.959 24.0688C173.905 24.0511 173.856 24.0221 173.814 23.9838C173.769 23.933 173.738 23.8711 173.725 23.8046C173.712 23.7381 173.717 23.6693 173.739 23.6053C173.698 23.3253 173.679 23.0424 173.683 22.7594C173.684 22.4343 173.642 22.1104 173.557 21.7967C173.474 21.4953 173.313 21.2212 173.089 21.0022C172.785 20.7518 172.404 20.6148 172.01 20.6144C171.39 20.5973 170.775 20.7219 170.211 20.9789C169.592 21.2531 169.015 21.6117 168.495 22.0444C167.919 22.515 167.387 23.0375 166.907 23.6053C166.403 24.189 165.935 24.8023 165.505 25.4419C165.093 26.0512 164.718 26.6848 164.383 27.3392C164.065 27.9748 163.799 28.559 163.593 29.0964C163.434 29.5286 163.307 29.9723 163.215 30.4236C163.105 30.892 163.078 31.376 163.135 31.8537C163.157 32.0537 163.219 32.2472 163.317 32.4224C163.416 32.5976 163.55 32.7507 163.71 32.8725C164.028 33.1155 164.57 33.1482 165.336 32.9753C165.82 32.8128 166.267 32.5554 166.65 32.2182C167.219 31.7649 167.762 31.2796 168.276 30.7648C168.834 30.2102 169.368 29.637 169.879 29.045C170.316 28.546 170.728 28.025 171.113 27.4841C171.407 26.8766 171.664 26.2831 171.879 25.6989C172.072 25.208 172.216 24.6993 172.309 24.1801C172.448 24.1281 172.596 24.1057 172.744 24.1146C172.892 24.1234 173.037 24.1633 173.169 24.2315C173.529 24.3774 173.856 24.5934 174.131 24.8671C174.423 25.1501 174.658 25.4864 174.823 25.8578C174.904 26.0203 174.949 26.1982 174.955 26.3795C174.962 26.5609 174.929 26.7415 174.861 26.9093C174.706 27.2411 174.515 27.6243 174.29 28.0683C174.066 28.5123 173.823 28.9703 173.613 29.4703C173.402 29.9703 173.178 30.405 172.987 30.8723C172.818 31.2863 172.678 31.7109 172.566 32.1434C172.478 32.4386 172.448 32.7481 172.477 33.0547C172.484 33.1593 172.532 33.257 172.609 33.3275C172.687 33.398 172.788 33.4359 172.893 33.4333H173.281C174.078 33.189 174.818 32.7851 175.454 32.2462C176.152 31.6717 176.798 31.0368 177.384 30.3489C177.984 29.6399 178.547 28.9005 179.071 28.1337L180.543 26.012C180.577 25.9617 180.621 25.9194 180.673 25.8879C180.724 25.8564 180.782 25.8366 180.842 25.8298C180.96 25.8117 181.081 25.8348 181.184 25.8952C181.231 25.9269 181.271 25.9675 181.302 26.0149C181.334 26.0622 181.355 26.1152 181.366 26.1709C181.373 26.2424 181.364 26.3145 181.339 26.3818C181.314 26.4491 181.273 26.5096 181.221 26.5588C180.754 27.2177 180.286 27.8907 179.819 28.5777C179.352 29.2647 178.884 29.9329 178.361 30.5825C177.837 31.2321 177.323 31.8583 176.763 32.4519C176.197 33.0512 175.582 33.603 174.926 34.1015C174.772 34.2231 174.575 34.3679 174.342 34.5315C174.089 34.7072 173.824 34.8635 173.547 34.9988C173.237 35.1502 172.915 35.2752 172.585 35.3727C172.231 35.4804 171.86 35.5247 171.491 35.5035C170.983 35.4947 170.487 35.3424 170.061 35.0642C169.706 34.8151 169.434 34.465 169.281 34.0595C169.115 33.612 169.055 33.1319 169.108 32.6575C169.161 32.1176 169.288 31.5876 169.486 31.0826C169 31.6184 168.489 32.1481 167.953 32.6715C167.438 33.1743 166.89 33.6426 166.313 34.0735C165.798 34.4568 165.243 34.7842 164.659 35.0502C164.167 35.2805 163.626 35.3865 163.084 35.3587C162.336 35.3661 161.606 35.1299 161.004 34.6857C160.555 34.3175 160.217 33.8322 160.027 33.2837C159.846 32.7437 159.762 32.1755 159.78 31.606C159.789 31.1164 159.841 30.6286 159.934 30.1479C160.15 29.291 160.464 28.4615 160.869 27.6757C161.336 26.7325 161.89 25.8345 162.523 24.9933C163.196 24.0942 163.935 23.246 164.733 22.4556C165.518 21.6756 166.392 20.9902 167.336 20.4134C168.215 19.876 169.172 19.4802 170.173 19.2404C171.125 19.0156 172.119 19.0349 173.061 19.2965C173.447 19.3976 173.793 19.6145 174.052 19.918C174.298 20.2205 174.48 20.5705 174.585 20.9461C174.701 21.3664 174.762 21.8 174.767 22.236C174.766 22.6951 174.726 23.1532 174.646 23.6053Z" fill="#014225" stroke="#024225" stroke-miterlimit="10"/>
<path d="M193.153 23.6047C193.15 23.6728 193.132 23.7396 193.101 23.8001C193.069 23.8607 193.025 23.9136 192.971 23.9552C192.874 24.0313 192.757 24.0769 192.634 24.086C192.578 24.0923 192.521 24.0864 192.467 24.0686C192.413 24.0509 192.363 24.0217 192.321 23.9832C192.276 23.9328 192.244 23.8712 192.23 23.8047C192.216 23.7382 192.22 23.6691 192.242 23.6047C192.205 23.3243 192.188 23.0416 192.19 22.7588C192.193 22.4333 192.149 22.1091 192.06 21.7961C191.978 21.4939 191.817 21.2194 191.592 21.0016C191.289 20.7498 190.907 20.6126 190.513 20.6137C189.895 20.5972 189.281 20.7219 188.718 20.9783C188.099 21.2535 187.52 21.612 186.998 22.0438C186.422 22.5144 185.89 23.0369 185.409 23.6047C184.906 24.1883 184.438 24.8016 184.007 25.4413C183.596 26.0506 183.221 26.6842 182.886 27.3386C182.563 27.9742 182.302 28.5584 182.091 29.0958C181.936 29.5289 181.811 29.9724 181.718 30.423C181.605 30.891 181.578 31.3755 181.638 31.8531C181.659 32.0528 181.72 32.2462 181.818 32.4214C181.916 32.5966 182.049 32.7499 182.208 32.8718C182.531 33.1149 183.073 33.1476 183.835 32.9747C184.32 32.8124 184.768 32.555 185.152 32.2176C185.722 31.7642 186.265 31.279 186.779 30.7642C187.336 30.2096 187.869 29.6364 188.377 29.0444C188.817 28.5465 189.231 28.0255 189.615 27.4835C189.91 26.876 190.167 26.2825 190.382 25.6983C190.565 25.2121 190.703 24.7099 190.793 24.1982C190.932 24.1461 191.08 24.1238 191.229 24.1327C191.377 24.1415 191.521 24.1813 191.653 24.2496C192.013 24.3954 192.34 24.6115 192.616 24.8851C192.907 25.1671 193.141 25.5038 193.303 25.8759C193.384 26.0382 193.429 26.2158 193.437 26.3971C193.444 26.5784 193.413 26.7592 193.345 26.9274C193.186 27.2592 192.994 27.6424 192.77 28.0864C192.546 28.5303 192.303 28.9883 192.092 29.4884C191.882 29.9884 191.662 30.423 191.471 30.8904C191.298 31.3003 191.154 31.7219 191.041 32.1522C190.951 32.4471 190.92 32.7565 190.947 33.0634C190.956 33.1684 191.004 33.2661 191.082 33.3366C191.16 33.407 191.263 33.4447 191.368 33.442H191.756C192.552 33.1957 193.291 32.7921 193.929 32.255C194.626 31.6816 195.271 31.0465 195.854 30.3576C196.456 29.6487 197.02 28.9093 197.546 28.1425C198.073 27.3698 198.563 26.6626 199.018 26.0208C199.052 25.9705 199.096 25.9281 199.148 25.8966C199.199 25.8651 199.257 25.8453 199.317 25.8385C199.434 25.82 199.553 25.8432 199.654 25.9039C199.702 25.9341 199.743 25.9744 199.775 26.0219C199.806 26.0695 199.827 26.1233 199.836 26.1797C199.846 26.2508 199.839 26.3234 199.814 26.3911C199.79 26.4587 199.749 26.5193 199.696 26.5675C199.225 27.228 198.758 27.901 198.294 28.5864C197.83 29.2718 197.354 29.9323 196.868 30.5679C196.364 31.2159 195.829 31.839 195.265 32.4372C194.702 33.0377 194.09 33.5895 193.434 34.0869C193.279 34.2084 193.083 34.3533 192.849 34.5169C192.597 34.6926 192.331 34.8489 192.055 34.9842C191.745 35.1356 191.423 35.2606 191.092 35.3581C190.738 35.4652 190.368 35.5094 189.999 35.4889C189.489 35.4801 188.991 35.3279 188.564 35.0496C188.21 34.799 187.939 34.4494 187.784 34.0449C187.622 33.5964 187.564 33.1169 187.615 32.6429C187.664 32.1022 187.791 31.5716 187.994 31.068C187.508 31.6038 186.995 32.1335 186.456 32.6569C185.941 33.1585 185.395 33.6267 184.821 34.0589C184.305 34.4422 183.751 34.7696 183.166 35.0356C182.675 35.2659 182.134 35.3718 181.591 35.344C180.842 35.3504 180.111 35.1144 179.507 34.6711C179.06 34.3015 178.722 33.8167 178.53 33.2691C178.353 32.728 178.269 32.1606 178.283 31.5914C178.291 31.1015 178.344 30.6134 178.442 30.1333C178.658 29.2763 178.972 28.4469 179.376 27.6611C179.842 26.7179 180.394 25.8199 181.026 24.9786C181.7 24.0784 182.44 23.2302 183.241 22.441C184.025 21.6599 184.899 20.9744 185.844 20.3988C186.722 19.8606 187.679 19.4646 188.681 19.2258C189.633 19.001 190.626 19.0203 191.569 19.2818C191.954 19.383 192.298 19.6 192.555 19.9034C192.801 20.2067 192.984 20.5563 193.092 20.9315C193.209 21.3518 193.27 21.7854 193.275 22.2214C193.275 22.6851 193.234 23.148 193.153 23.6047Z" fill="#014225" stroke="#024225" stroke-miterlimit="10"/>
<path d="M221.991 29.3395C221.645 29.8068 221.193 30.3925 220.636 31.0966C220.061 31.8157 219.436 32.4934 218.766 33.1248C218.124 33.7471 217.423 34.3059 216.673 34.7932C216.062 35.2151 215.344 35.4534 214.603 35.4802C214.234 35.4828 213.867 35.4162 213.523 35.2839C213.192 35.1635 212.897 34.9628 212.663 34.6997C212.414 34.4099 212.232 34.0683 212.13 33.6997C212.004 33.229 211.977 32.7373 212.051 32.2556C212.14 31.6904 212.271 31.1327 212.443 30.5872C212.616 30.0311 212.831 29.4423 213.093 28.8161C213.355 28.1898 213.659 27.5215 214.028 26.8019C214.397 26.0822 214.794 25.2783 215.261 24.3951C215.517 23.9075 215.738 23.4032 215.925 22.8856C216.073 22.5678 216.124 22.2133 216.07 21.8668C216 21.6612 215.78 21.6285 215.406 21.764C214.77 22.0727 214.178 22.4674 213.649 22.937C212.746 23.6661 211.947 24.3733 211.252 25.0587C210.56 25.741 209.85 26.4934 209.172 27.3066C208.948 27.6898 208.742 28.0636 208.56 28.4282C208.378 28.7927 208.2 29.1666 208.027 29.5451C207.636 30.4596 207.297 31.3958 207.013 32.3491C206.73 33.2946 206.494 34.2539 206.307 35.2232C206.275 35.3821 206.144 35.4288 205.92 35.3681C205.657 35.2923 205.407 35.1789 205.176 35.0316C204.909 34.8682 204.663 34.6702 204.447 34.4427C204.269 34.2868 204.145 34.0768 204.097 33.8446C204.314 32.2858 204.729 30.761 205.331 29.3067C205.954 27.8019 206.636 26.2613 207.378 24.6848C207.708 24.0146 207.994 23.3229 208.233 22.6146C208.406 22.0678 208.373 21.7547 208.13 21.6799C207.845 21.7145 207.57 21.8067 207.322 21.951C206.799 22.2408 206.303 22.5771 205.84 22.9557C204.937 23.6848 204.13 24.3998 203.419 25.1008C202.709 25.8018 201.98 26.5806 201.232 27.4374C200.584 28.6439 200.019 29.893 199.54 31.1761C199.066 32.4793 198.719 33.8252 198.503 35.1951C198.466 35.354 198.335 35.4008 198.11 35.34C197.856 35.2663 197.614 35.1527 197.395 35.0035C197.142 34.8361 196.91 34.6383 196.704 34.4147C196.531 34.2594 196.42 34.047 196.391 33.8165C196.551 32.557 196.844 31.318 197.265 30.1199C197.688 28.9111 198.17 27.7022 198.709 26.4934C199.246 25.2877 199.802 24.082 200.372 22.8856C200.942 21.6892 201.461 20.4742 201.91 19.2451C202.053 19.1931 202.205 19.1708 202.357 19.1796C202.509 19.1885 202.657 19.2282 202.793 19.2965C203.152 19.4405 203.48 19.6515 203.76 19.9181C204.049 20.1888 204.278 20.5166 204.433 20.8808C204.511 21.0426 204.554 21.2192 204.559 21.3988C204.564 21.5785 204.531 21.7571 204.461 21.9229C204.373 22.1514 204.269 22.3732 204.148 22.5865C204.03 22.7976 203.901 23.002 203.76 23.1987C204.262 22.7127 204.785 22.2454 205.331 21.7967C205.859 21.3482 206.417 20.9346 206.999 20.5583C207.541 20.2047 208.115 19.9042 208.714 19.661C209.266 19.4336 209.852 19.2978 210.448 19.2591C210.729 19.2464 211.005 19.3324 211.228 19.5021C211.489 19.6857 211.714 19.9154 211.892 20.1798C212.07 20.4406 212.199 20.7321 212.271 21.0396C212.341 21.3132 212.313 21.6026 212.191 21.8575C212.051 22.1192 211.906 22.3762 211.724 22.6286C211.561 22.8924 211.415 23.1654 211.284 23.4464C211.805 22.9292 212.342 22.4261 212.897 21.9369C213.439 21.4623 214.012 21.0236 214.612 20.6237C215.175 20.2538 215.773 19.9407 216.397 19.6891C216.973 19.4504 217.584 19.3099 218.206 19.2732C218.47 19.2662 218.728 19.3522 218.935 19.5161C219.195 19.6997 219.42 19.9294 219.598 20.1938C219.777 20.4552 219.909 20.7464 219.986 21.0537C220.069 21.3242 220.048 21.6162 219.925 21.8715C219.262 23.3296 218.662 24.5571 218.126 25.5541C217.59 26.5511 217.123 27.4452 216.724 28.2366C216.338 28.9737 215.99 29.7303 215.682 30.5031C215.379 31.2805 215.156 32.087 215.018 32.9099C215.021 32.989 215.034 33.0676 215.056 33.1436C215.086 33.2349 215.141 33.3159 215.215 33.3772C215.306 33.4506 215.421 33.4872 215.537 33.48C215.74 33.4617 215.936 33.3995 216.112 33.2978C216.98 32.873 217.793 32.3441 218.533 31.7228C219.587 30.8502 220.529 29.8503 221.337 28.7459C221.703 28.2995 222.042 27.8314 222.351 27.3439C222.645 26.8766 222.94 26.4093 223.234 26.0027C223.316 25.903 223.433 25.8379 223.561 25.8204C223.678 25.8019 223.797 25.8251 223.898 25.8859C223.946 25.9161 223.988 25.9563 224.019 26.0039C224.05 26.0515 224.071 26.1053 224.08 26.1616C224.091 26.2309 224.086 26.3017 224.066 26.3689C224.046 26.436 224.011 26.4978 223.963 26.5495L221.991 29.3395Z" fill="#014225" stroke="#024225" stroke-miterlimit="10"/>
<path d="M52.248 10.0335C52.1011 9.51363 51.8534 9.02774 51.519 8.60344C51.2202 8.23372 50.8415 7.93654 50.4114 7.73421C49.9823 7.53284 49.5197 7.41243 49.0468 7.37904C48.3269 7.34986 47.6068 7.43023 46.9111 7.61738C44.8952 7.97539 42.9576 8.68398 41.1863 9.71102C37.7517 11.6927 35.0291 14.7064 33.4052 18.3239C32.5963 20.0958 32.0938 21.992 31.9191 23.9319C31.8474 24.7825 31.9347 24.7825 32.1808 23.9319C32.4323 22.9927 32.7669 22.0778 33.1809 21.198C33.6442 20.2096 34.18 19.2567 34.7838 18.3473C35.4165 17.393 36.1112 16.4813 36.8635 15.6181C37.6139 14.7533 38.4431 13.9601 39.3403 13.2487C40.2346 12.6009 41.1714 12.0138 42.1443 11.4916C51.5891 5.81814 50.846 17.7491 41.6116 24.6329C39.0272 27.1892 33.2557 31.2457 31.4378 32.3392C29.7258 33.3758 27.9423 34.2895 26.1008 35.0731C26.0519 34.0702 25.952 33.0703 25.8017 32.0775C25.6522 31.1241 25.4777 30.1895 25.2783 29.2735C25.082 28.3389 24.8577 27.4462 24.6147 26.5536C24.3717 25.661 24.1474 24.7591 23.9137 23.8572C22.465 19.5811 21.6425 14.0011 23.2641 11.1083C24.124 9.57549 26.7878 7.29025 30.8115 9.80449C31.5492 10.3958 32.1596 11.1302 32.6061 11.9636C33.1578 13.001 33.5531 14.1144 33.7791 15.2676C33.785 15.4404 33.8298 15.6097 33.9099 15.763C33.9613 15.8331 33.9847 15.6929 33.9847 15.347C34.1139 13.8648 33.9552 12.3715 33.5174 10.9495C33.1444 9.74687 32.5289 8.63351 31.7088 7.67814C31.1904 7.11857 30.5938 6.63691 29.9376 6.2481C29.0044 5.70536 27.9584 5.38549 26.8813 5.31344C25.7301 5.24191 24.5777 5.43368 23.5118 5.87421C22.4934 6.23652 21.5621 6.80803 20.7779 7.55195C20.1007 8.21374 19.5691 9.0096 19.217 9.88861C18.866 10.7834 18.6716 11.7319 18.6422 12.6926C18.6129 13.7304 18.7007 14.7682 18.9039 15.7863C19.145 17.1337 19.457 18.4675 19.8386 19.782C20.1984 20.9737 20.5723 22.1187 20.9742 23.2076C21.778 25.4274 21.6051 24.9507 22.264 26.6051C22.5444 27.3481 22.8202 28.1052 23.0959 28.8669C23.3716 29.6287 23.6286 30.4278 23.853 31.2644C24.0773 32.1009 24.2829 32.9701 24.4652 33.8908C24.6474 34.8114 24.7876 35.7928 24.8951 36.8303C26.6858 36.3534 28.4249 35.7006 30.0872 34.8815C32.0787 33.9209 34.0038 32.828 35.8494 31.6102C37.4595 30.6529 38.984 29.5584 40.4058 28.3389C41.9962 27.0922 43.5202 25.7632 44.9717 24.3572C46.3346 23.0483 47.6013 21.6426 48.7617 20.1512C49.7861 18.8479 50.6667 17.4377 51.3881 15.9452C52.002 14.7305 52.3674 13.4054 52.463 12.0477C52.5069 11.3689 52.4342 10.6877 52.248 10.0335Z" fill="#FCB017" stroke="#FBB019" stroke-miterlimit="10"/>
</g>
<defs>
<clipPath id="clip0_1_712">
<rect width="224.562" height="52" fill="white"/>
</clipPath>
</defs>
</svg>
